<svg xmlns="http://www.w3.org/2000/svg" width="72.91" height="52.59" viewBox="0 0 72.91 52.59">
  <metadata><?xpacket begin="﻿" id="W5M0MpCehiHzreSzNTczkc9d"?>
<x:xmpmeta xmlns:x="adobe:ns:meta/" x:xmptk="Adobe XMP Core 5.6-c142 79.160924, 2017/07/13-01:06:39        ">
   <rdf:RDF xmlns:rdf="http://www.w3.org/1999/02/22-rdf-syntax-ns#">
      <rdf:Description rdf:about=""/>
   </rdf:RDF>
</x:xmpmeta>
                                                                                                    
                                                                                                    
                                                                                                    
                                                                                                    
                                                                                                    
                                                                                                    
                                                                                                    
                                                                                                    
                                                                                                    
                                                                                                    
                                                                                                    
                                                                                                    
                                                                                                    
                                                                                                    
                                                                                                    
                                                                                                    
                                                                                                    
                                                                                                    
                                                                                                    
                                                                                                    
                           
<?xpacket end="w"?></metadata>
<defs>
    <style>
      .cls-1 {
        fill: #e4002b;
        fill-rule: evenodd;
      }
    </style>
  </defs>
  <path id="Forma_1" data-name="Forma 1" class="cls-1" d="M2681.91,4730.54c-0.03-1.48-.14-3.35-0.34-5.61a52.576,52.576,0,0,0-.88-6.06,9.513,9.513,0,0,0-2.83-5.05,8.646,8.646,0,0,0-5.06-2.39,365.848,365.848,0,0,0-54.6,0,8.564,8.564,0,0,0-5.05,2.39,9.616,9.616,0,0,0-2.81,5.05,46.434,46.434,0,0,0-.91,6.06c-0.21,2.26-.32,4.13-0.35,5.61s-0.04,3.53-.04,6.16,0.02,4.69.04,6.16,0.14,3.35.35,5.61a50.6,50.6,0,0,0,.87,6.06,9.645,9.645,0,0,0,2.83,5.06,8.632,8.632,0,0,0,5.07,2.38,362.306,362.306,0,0,0,54.6,0,8.551,8.551,0,0,0,5.04-2.38,9.615,9.615,0,0,0,2.81-5.06,46.334,46.334,0,0,0,.92-6.06c0.2-2.26.31-4.13,0.34-5.61s0.04-3.53.04-6.16S2681.94,4732.02,2681.91,4730.54Zm-22.01,8.38-20.83,13.15a2.323,2.323,0,0,1-1.38.41,2.827,2.827,0,0,1-1.27-.33,2.454,2.454,0,0,1-1.34-2.3v-26.3a2.59,2.59,0,0,1,3.99-2.21l20.83,13.14A2.63,2.63,0,0,1,2659.9,4738.92Z" transform="translate(-2609.03 -4710.41)"/>
</svg>
