<svg xmlns="http://www.w3.org/2000/svg" width="53.93" height="54.38" viewBox="0 0 53.93 54.38">
  <metadata><?xpacket begin="﻿" id="W5M0MpCehiHzreSzNTczkc9d"?>
<x:xmpmeta xmlns:x="adobe:ns:meta/" x:xmptk="Adobe XMP Core 5.6-c142 79.160924, 2017/07/13-01:06:39        ">
   <rdf:RDF xmlns:rdf="http://www.w3.org/1999/02/22-rdf-syntax-ns#">
      <rdf:Description rdf:about=""/>
   </rdf:RDF>
</x:xmpmeta>
                                                                                                    
                                                                                                    
                                                                                                    
                                                                                                    
                                                                                                    
                                                                                                    
                                                                                                    
                                                                                                    
                                                                                                    
                                                                                                    
                                                                                                    
                                                                                                    
                                                                                                    
                                                                                                    
                                                                                                    
                                                                                                    
                                                                                                    
                                                                                                    
                                                                                                    
                                                                                                    
                           
<?xpacket end="w"?></metadata>
<defs>
    <style>
      .cls-1 {
        fill: #e4002b;
        fill-rule: evenodd;
      }
    </style>
  </defs>
  <path class="cls-1" d="M2753.03,4708.8h-24.8a14.652,14.652,0,0,0-14.57,14.7v25a14.658,14.658,0,0,0,14.57,14.7h24.8a14.658,14.658,0,0,0,14.57-14.7v-25A14.652,14.652,0,0,0,2753.03,4708.8Zm10.21,39.7a10.266,10.266,0,0,1-10.21,10.3h-24.8a10.266,10.266,0,0,1-10.21-10.3v-25a10.275,10.275,0,0,1,10.21-10.31h24.8a10.275,10.275,0,0,1,10.21,10.31v25Zm-10.54-14.4a12.167,12.167,0,0,0-10.19-10.28,12.419,12.419,0,0,0-3.55,0,12.059,12.059,0,0,0-7.94,4.8,12.271,12.271,0,0,0,2.51,17.07,12.026,12.026,0,0,0,16.92-2.53A12.162,12.162,0,0,0,2752.7,4734.1Zm-10.83,9.51a7.62,7.62,0,0,1-5.74-1.45,7.815,7.815,0,0,1,3.47-13.99,7.285,7.285,0,0,1,1.14-.08,7.158,7.158,0,0,1,1.13.08,7.722,7.722,0,0,1,6.52,6.58A7.8,7.8,0,0,1,2741.87,4743.61Zm13.94-22.92a2.185,2.185,0,0,0-3.09,0,2.253,2.253,0,0,0-.63,1.56,2.229,2.229,0,0,0,.63,1.55,2.161,2.161,0,0,0,3.09,0,2.229,2.229,0,0,0,.63-1.55A2.253,2.253,0,0,0,2755.81,4720.69Z" transform="translate(-2713.66 -4708.81)"/>
</svg>
